# xmcd
#
# Track frame offsets: 
#        150
#        15793
#        28997
#        52792
#        67922
#        86246
#        112577
#        132834
#        151488
#        172044
#        198542
#        216211
#        240431
#
# Disc length: 3472 seconds
#
# Revision: 0
# Processed by: cddbd v1.5.2PL0 Copyright (c) Steve Scherf et al.
# Submitted via: ExactAudioCopy v1.3
#
DISCID=a10d8e0d
DTITLE=Bluesman Mike and the Blues Review Band - We Do the Blues.
DYEAR=2018
DGENRE=Blues
TTITLE0=Stimulus Man
TTITLE1=Don't Know What to Do
TTITLE2=Me and My Woman
TTITLE3=Love Jail
TTITLE4=What You Won't Do for Love
TTITLE5=Everybody Knows About My Good Thing
TTITLE6=I Got a Problem
TTITLE7=Juke Joint Jump
TTITLE8=Let's Straighten It Out
TTITLE9=Dock of the Bay
TTITLE10=You Treat My Love Like It's Roadkill
TTITLE11=Am I Wrong
TTITLE12=Red House
EXTD=
EXTT0=
EXTT1=
EXTT2=
EXTT3=
EXTT4=
EXTT5=
EXTT6=
EXTT7=
EXTT8=
EXTT9=
EXTT10=
EXTT11=
EXTT12=
PLAYORDER=
